<svg width="53" height="82" viewBox="0 0 53 82" fill="none" xmlns="http://www.w3.org/2000/svg">
<g clip-path="url(#clip0_1_19)">
<path d="M31 18C38.1797 18 44 23.8203 44 31C44 31.1674 43.9965 31.3341 43.9902 31.5H36.9775C36.9911 31.3351 37 31.1684 37 31C37 27.6863 34.3137 25 31 25C27.6863 25 25 27.6863 25 31C25 34.2886 27.6458 36.9578 30.9248 36.998L30 38L40.0576 40.3203C37.7163 42.5961 34.523 44 31 44C23.8203 44 18 38.1797 18 31C18 23.8203 23.8203 18 31 18Z" fill="#F4642B"/>
<path d="M30.5 37C42.9264 37 53 47.0736 53 59.5C53 71.9264 42.9264 82 30.5 82C18.0736 82 8 71.9264 8 59.5C8 52.3785 11.3088 46.03 16.4727 41.9072L21.6709 46.7598C17.6398 49.5586 15 54.2207 15 59.5C15 68.0604 21.9396 75 30.5 75C39.0604 75 46 68.0604 46 59.5C46 51.0188 39.1883 44.1288 30.7373 44.002C28.0435 43.0196 23.1545 41.4374 21.4482 38.8955C24.218 37.677 27.2799 37 30.5 37Z" fill="#F4642B"/>
<path d="M22.5 17.6391C22 11.1391 16.8 -1.46092 0 0.13908C0.666667 6.30576 6.1 18.4391 22.5 17.6391Z" fill="#48A356"/>
</g>
<defs>
<clipPath id="clip0_1_19">
<rect width="53" height="82" fill="white"/>
</clipPath>
</defs>
</svg>
