<svg width="217" height="99" viewBox="0 0 217 99" fill="none" xmlns="http://www.w3.org/2000/svg">
<g clip-path="url(#clip0_1_36)">
<path d="M31 18C38.1797 18 44 23.8203 44 31C44 31.1674 43.9965 31.3341 43.9902 31.5H36.9775C36.9911 31.3351 37 31.1684 37 31C37 27.6863 34.3137 25 31 25C27.6863 25 25 27.6863 25 31C25 34.2886 27.6458 36.9578 30.9248 36.998L30 38L40.0576 40.3203C37.7163 42.5961 34.523 44 31 44C23.8203 44 18 38.1797 18 31C18 23.8203 23.8203 18 31 18Z" fill="#F4642B"/>
<path d="M30.5 37C42.9264 37 53 47.0736 53 59.5C53 71.9264 42.9264 82 30.5 82C18.0736 82 8 71.9264 8 59.5C8 52.3785 11.3088 46.03 16.4727 41.9072L21.6709 46.7598C17.6398 49.5586 15 54.2207 15 59.5C15 68.0604 21.9396 75 30.5 75C39.0604 75 46 68.0604 46 59.5C46 51.0188 39.1883 44.1288 30.7373 44.002C28.0435 43.0196 23.1545 41.4374 21.4482 38.8955C24.218 37.677 27.2799 37 30.5 37Z" fill="#F4642B"/>
<path d="M22.5 17.6391C22 11.1391 16.8 -1.46092 0 0.13908C0.666667 6.30576 6.1 18.4391 22.5 17.6391Z" fill="#48A356"/>
<path d="M77.592 50H79.96V82.064C77.4 82.064 75.16 81.9573 73.24 81.744C71.32 81.5307 69.3147 81.0827 67.224 80.4C65.176 79.6747 63.4907 78.7147 62.168 77.52C60.8453 76.3253 59.7573 74.6827 58.904 72.592C58.0507 70.4587 57.624 68.0693 57.624 65.424C57.624 62.7787 57.88 60.5173 58.392 58.64C58.9467 56.72 59.6293 55.2053 60.44 54.096C61.2933 52.944 62.232 52.0053 63.256 51.28C65.048 49.9573 66.8187 49.296 68.568 49.296C71.768 49.296 74.776 50.8107 77.592 53.84V50ZM59.992 65.104C59.992 70.6933 61.72 74.576 65.176 76.752C68.248 78.672 72.3867 79.632 77.592 79.632V57.04C76.1413 55.376 74.7333 54.0747 73.368 53.136C72.0453 52.1547 70.5733 51.664 68.952 51.664C66.264 51.664 64.088 52.8587 62.424 55.248C60.8027 57.5947 59.992 60.88 59.992 65.104ZM97.7555 50V52.368H91.6115V82H89.2435V52.368H86.6835V50H89.2435V49.68C89.2435 46.736 89.6062 44.176 90.3315 42C91.0568 39.7813 91.9955 38.1387 93.1475 37.072C95.2808 34.9813 97.4142 33.936 99.5475 33.936C100.614 33.936 101.318 33.9573 101.66 34V36.368C101.404 36.3253 100.828 36.304 99.9315 36.304C97.4568 36.304 95.4515 37.6267 93.9155 40.272C92.3795 42.9173 91.6115 46.0747 91.6115 49.744V50H97.7555ZM123.09 79.696V82.064C120.53 82.064 118.268 81.9573 116.306 81.744C114.386 81.5307 112.38 81.0827 110.29 80.4C108.199 79.6747 106.471 78.7147 105.106 77.52C103.783 76.3253 102.674 74.6827 101.778 72.592C100.924 70.4587 100.498 67.9413 100.498 65.04C100.498 62.096 100.882 59.536 101.65 57.36C102.46 55.184 103.484 53.5413 104.722 52.432C107.026 50.384 109.266 49.36 111.442 49.36C115.068 49.36 117.884 50.4267 119.89 52.56C121.938 54.6933 122.962 57.5093 122.962 61.008C122.962 63.3547 122.94 64.72 122.898 65.104H102.866C102.866 70.608 104.508 74.4267 107.794 76.56C111.079 78.6507 116.178 79.696 123.09 79.696ZM120.594 62.736V61.328C120.594 58.512 119.783 56.208 118.162 54.416C116.583 52.624 114.471 51.728 111.826 51.728C109.223 51.728 107.154 52.7733 105.618 54.864C104.124 56.912 103.228 59.536 102.93 62.736H120.594ZM143.489 82V37.2H166.401V39.568H145.857V55.952H166.401V58.32H145.857V79.632H166.401V82H143.489ZM191.842 50H194.21V82.064C191.65 82.064 189.41 81.9573 187.49 81.744C185.57 81.5307 183.565 81.0827 181.474 80.4C179.426 79.6747 177.741 78.7147 176.418 77.52C175.095 76.3253 174.007 74.6827 173.154 72.592C172.301 70.4587 171.874 68.0693 171.874 65.424C171.874 62.7787 172.13 60.5173 172.642 58.64C173.197 56.72 173.879 55.2053 174.69 54.096C175.543 52.944 176.482 52.0053 177.506 51.28C179.298 49.9573 181.069 49.296 182.818 49.296C186.018 49.296 189.026 50.8107 191.842 53.84V50ZM174.242 65.104C174.242 70.6933 175.97 74.576 179.426 76.752C182.498 78.672 186.637 79.632 191.842 79.632V57.04C190.391 55.376 188.983 54.0747 187.618 53.136C186.295 52.1547 184.823 51.664 183.202 51.664C180.514 51.664 178.338 52.8587 176.674 55.248C175.053 57.5947 174.242 60.88 174.242 65.104ZM206.624 52.368H199.264V50H206.624V39.44H208.992V50H216.416V52.368H208.992V82H206.624V52.368Z" fill="#F4642B"/>
</g>
<defs>
<clipPath id="clip0_1_36">
<rect width="217" height="99" fill="white"/>
</clipPath>
</defs>
</svg>
